<svg width="174" height="56" viewBox="0 0 174 56" fill="none" xmlns="http://www.w3.org/2000/svg">
	<path d="M61.6758 29.4375L65.6953 15.9375H69.6094L63.668 33H61.0898L61.6758 29.4375ZM57.9727 15.9375L61.9805 29.4375L62.5898 33H59.9883L54.082 15.9375H57.9727ZM74.3147 20.3203V33H70.928V20.3203H74.3147ZM70.717 17.0156C70.717 16.5234 70.8889 16.1172 71.2327 15.7969C71.5764 15.4766 72.0373 15.3164 72.6155 15.3164C73.1858 15.3164 73.6428 15.4766 73.9866 15.7969C74.3381 16.1172 74.5139 16.5234 74.5139 17.0156C74.5139 17.5078 74.3381 17.9141 73.9866 18.2344C73.6428 18.5547 73.1858 18.7148 72.6155 18.7148C72.0373 18.7148 71.5764 18.5547 71.2327 18.2344C70.8889 17.9141 70.717 17.5078 70.717 17.0156ZM82.6997 33.2344C81.7153 33.2344 80.8325 33.0781 80.0513 32.7656C79.27 32.4453 78.6059 32.0039 78.0591 31.4414C77.52 30.8789 77.1059 30.2266 76.8169 29.4844C76.5278 28.7344 76.3833 27.9375 76.3833 27.0938V26.625C76.3833 25.6641 76.52 24.7852 76.7934 23.9883C77.0669 23.1914 77.4575 22.5 77.9653 21.9141C78.4809 21.3281 79.1059 20.8789 79.8403 20.5664C80.5747 20.2461 81.4028 20.0859 82.3247 20.0859C83.2231 20.0859 84.02 20.2344 84.7153 20.5312C85.4106 20.8281 85.9927 21.25 86.4614 21.7969C86.938 22.3438 87.2973 23 87.5395 23.7656C87.7817 24.5234 87.9028 25.3672 87.9028 26.2969V27.7031H77.8247V25.4531H84.5864V25.1953C84.5864 24.7266 84.5005 24.3086 84.3286 23.9414C84.1645 23.5664 83.9145 23.2695 83.5786 23.0508C83.2427 22.832 82.813 22.7227 82.2895 22.7227C81.8442 22.7227 81.4614 22.8203 81.1411 23.0156C80.8208 23.2109 80.5591 23.4844 80.3559 23.8359C80.1606 24.1875 80.0122 24.6016 79.9106 25.0781C79.8169 25.5469 79.77 26.0625 79.77 26.625V27.0938C79.77 27.6016 79.8403 28.0703 79.9809 28.5C80.1294 28.9297 80.3364 29.3008 80.602 29.6133C80.8755 29.9258 81.2036 30.168 81.5864 30.3398C81.977 30.5117 82.4184 30.5977 82.9106 30.5977C83.52 30.5977 84.0864 30.4805 84.6098 30.2461C85.1411 30.0039 85.5981 29.6406 85.9809 29.1562L87.6216 30.9375C87.3559 31.3203 86.9927 31.6875 86.5317 32.0391C86.0786 32.3906 85.5317 32.6797 84.8911 32.9062C84.2505 33.125 83.52 33.2344 82.6997 33.2344ZM95.7956 20.3203V22.7109H88.4128V20.3203H95.7956ZM90.2409 17.1914H93.6159V29.1797C93.6159 29.5469 93.6628 29.8281 93.7566 30.0234C93.8581 30.2188 94.0066 30.3555 94.2019 30.4336C94.3972 30.5039 94.6433 30.5391 94.9402 30.5391C95.1511 30.5391 95.3386 30.5312 95.5027 30.5156C95.6745 30.4922 95.8191 30.4688 95.9362 30.4453L95.948 32.9297C95.6589 33.0234 95.3464 33.0977 95.0105 33.1523C94.6745 33.207 94.3034 33.2344 93.8972 33.2344C93.155 33.2344 92.5066 33.1133 91.9519 32.8711C91.405 32.6211 90.9831 32.2227 90.6862 31.6758C90.3894 31.1289 90.2409 30.4102 90.2409 29.5195V17.1914ZM104.626 18.8555L99.9853 33H96.247L102.587 15.9375H104.966L104.626 18.8555ZM108.481 33L103.829 18.8555L103.454 15.9375H105.856L112.231 33H108.481ZM108.27 26.6484V29.4023H99.2588V26.6484H108.27ZM116.292 23.0273V33H112.917V20.3203H116.081L116.292 23.0273ZM115.8 26.2148H114.886C114.886 25.2773 115.007 24.4336 115.249 23.6836C115.491 22.9258 115.831 22.2812 116.269 21.75C116.706 21.2109 117.226 20.8008 117.827 20.5195C118.437 20.2305 119.116 20.0859 119.866 20.0859C120.46 20.0859 121.003 20.1719 121.495 20.3438C121.987 20.5156 122.409 20.7891 122.761 21.1641C123.12 21.5391 123.394 22.0352 123.581 22.6523C123.777 23.2695 123.874 24.0234 123.874 24.9141V33H120.476V24.9023C120.476 24.3398 120.398 23.9023 120.241 23.5898C120.085 23.2773 119.855 23.0586 119.55 22.9336C119.253 22.8008 118.886 22.7344 118.448 22.7344C117.995 22.7344 117.601 22.8242 117.265 23.0039C116.937 23.1836 116.663 23.4336 116.445 23.7539C116.234 24.0664 116.073 24.4336 115.964 24.8555C115.855 25.2773 115.8 25.7305 115.8 26.2148ZM129.494 15V33H126.119V15H129.494ZM129.013 26.2148H128.087C128.095 25.332 128.212 24.5195 128.439 23.7773C128.665 23.0273 128.99 22.3789 129.412 21.832C129.833 21.2773 130.337 20.8477 130.923 20.543C131.517 20.2383 132.173 20.0859 132.892 20.0859C133.517 20.0859 134.083 20.1758 134.591 20.3555C135.107 20.5273 135.548 20.8086 135.915 21.1992C136.29 21.582 136.58 22.0859 136.783 22.7109C136.986 23.3359 137.087 24.0938 137.087 24.9844V33H133.689V24.9609C133.689 24.3984 133.607 23.957 133.443 23.6367C133.287 23.3086 133.056 23.0781 132.751 22.9453C132.455 22.8047 132.087 22.7344 131.65 22.7344C131.165 22.7344 130.751 22.8242 130.408 23.0039C130.072 23.1836 129.802 23.4336 129.599 23.7539C129.396 24.0664 129.247 24.4336 129.154 24.8555C129.06 25.2773 129.013 25.7305 129.013 26.2148Z" fill="white"/>
	<path d="M10 0L27.5 56L45 0H35L27.5 36L20 0H10Z" fill="black"/>
</svg>
