<svg width="174" height="56" viewBox="0 0 174 56" fill="none" xmlns="http://www.w3.org/2000/svg">
    <path d="M61.6758 29.4375L65.6953 15.9375H69.6094L63.668 33H61.0898L61.6758 29.4375ZM57.9727 15.9375L61.9805 29.4375L62.5898 33H59.9883L54.082 15.9375H57.9727ZM74.7014 15.9375V33H71.1975V15.9375H74.7014ZM89.2036 30.2578V33H80.1216V30.2578H89.2036ZM81.27 15.9375V33H77.7544V15.9375H81.27ZM88.02 22.8867V25.5586H80.1216V22.8867H88.02ZM89.1919 15.9375V18.6914H80.1216V15.9375H89.1919ZM98.8777 15.9375V33H95.3737V15.9375H98.8777ZM104.128 15.9375V18.6914H90.2058V15.9375H104.128ZM111.563 18.8555L106.923 33H103.185L109.524 15.9375H111.903L111.563 18.8555ZM115.419 33L110.767 18.8555L110.392 15.9375H112.794L119.169 33H115.419ZM115.208 26.6484V29.4023H106.196V26.6484H115.208ZM134.398 15.9375V33H130.882L124.027 21.5625V33H120.511V15.9375H124.027L130.894 27.3867V15.9375H134.398ZM148.595 22.8867V25.6289H139.689V22.8867H148.595ZM140.732 15.9375V33H137.216V15.9375H140.732ZM151.103 15.9375V33H147.599V15.9375H151.103Z" fill="black"/>
    <path d="M10 0L27.5 56L45 0H35L27.5 36L20 0H10Z" fill="black"/>
</svg>
